<?xml version="1.0" encoding="utf-8"?>
<!-- Generator: Adobe Illustrator 25.2.1, SVG Export Plug-In . SVG Version: 6.00 Build 0)  -->
<svg version="1.1" id="Layer_1" xmlns="http://www.w3.org/2000/svg" xmlns:xlink="http://www.w3.org/1999/xlink" x="0px" y="0px"
	 viewBox="0 0 3300 2200" style="enable-background:new 0 0 3300 2200;" xml:space="preserve">
<style type="text/css">
	.st0{fill:#FFFFFF;}
	.st1{fill:none;stroke:#000000;stroke-width:0.5;}
	.st2{font-family:'Arial-BoldMT';}
	.st3{font-size:12px;}
	.st4{font-family:'ArialMT';}
	.st5{fill:none;stroke:#00AEEF;stroke-width:0.5;}
	.st6{fill:#27AAE1;}
	.st7{fill:none;stroke:#27AAE1;stroke-width:0.5;}
</style>
<g id="Notes">
	<rect id="artboard" class="st0" width="3300" height="2200"/>
	<line class="st1" x1="263" y1="292" x2="3036" y2="292"/>
	<text transform="matrix(1 0 0 1 262.9547 322.0455)" class="st2 st3">Weight/Scale Variations</text>
	<text transform="matrix(1 0 0 1 535.9909 322.0455)" class="st4 st3">Ultralight</text>
	<text transform="matrix(1 0 0 1 844.7048 322.0455)" class="st4 st3">Thin</text>
	<text transform="matrix(1 0 0 1 1140.0739 322.0455)" class="st4 st3">Light</text>
	<text transform="matrix(1 0 0 1 1428.783 322.0455)" class="st4 st3">Regular</text>
	<text transform="matrix(1 0 0 1 1725.1748 322.0455)" class="st4 st3">Medium</text>
	<text transform="matrix(1 0 0 1 2018.2109 322.0455)" class="st4 st3">Semibold</text>
	<text transform="matrix(1 0 0 1 2327.9258 322.0455)" class="st4 st3">Bold</text>
	<text transform="matrix(1 0 0 1 2619.6377 322.0455)" class="st4 st3">Heavy</text>
	<text transform="matrix(1 0 0 1 2918.6826 322.0455)" class="st4 st3">Black</text>
	<line class="st1" x1="263" y1="1903" x2="3036" y2="1903"/>
	<g transform="matrix(1 0 0 1 263 1933)">
		<path d="M9.2,0.9c4.3,0,7.9-3.6,7.9-7.9s-3.6-7.9-7.9-7.9S1.3-11.3,1.3-7S4.9,0.9,9.2,0.9z M9.2-0.6C5.7-0.6,2.8-3.4,2.8-7
			s2.8-6.4,6.4-6.4s6.4,2.8,6.4,6.4C15.6-3.5,12.8-0.6,9.2-0.6z M6.4-6.3h2.1v2.1c0,0.4,0.3,0.7,0.7,0.7s0.7-0.3,0.7-0.7v-2.1H12
			c0.4,0,0.7-0.3,0.7-0.7S12.4-7.7,12-7.7H9.9v-2.1c0-0.4-0.3-0.8-0.7-0.8s-0.7,0.3-0.7,0.8v2.1H6.4C6-7.7,5.6-7.4,5.6-7
			S5.9-6.3,6.4-6.3z"/>
	</g>
	<g transform="matrix(1 0 0 1 281.506 1933)">
		<path d="M11.7,3c5.4,0,10-4.5,10-10c0-5.4-4.5-10-10-10c-5.4,0-10,4.5-10,10C1.7-1.6,6.2,3,11.7,3z M11.7,1.3
			C7.1,1.3,3.4-2.4,3.4-7s3.7-8.3,8.3-8.3S20-11.6,20-7S16.3,1.3,11.7,1.3z M7.9-6.2h2.9v2.9c0,0.5,0.3,0.8,0.8,0.8s0.8-0.3,0.8-0.8
			v-2.9h2.9c0.5,0,0.8-0.3,0.8-0.8s-0.3-0.8-0.8-0.8h-2.9v-2.9c0-0.5-0.3-0.8-0.8-0.8s-0.8,0.3-0.8,0.8v2.9H7.9
			C7.4-7.8,7.1-7.5,7.1-7S7.4-6.2,7.9-6.2z"/>
	</g>
	<g transform="matrix(1 0 0 1 304.924 1933)">
		<path d="M14.9,5.7c7,0,12.7-5.8,12.7-12.7c0-7-5.8-12.7-12.7-12.7c-7,0-12.7,5.8-12.7,12.7S8,5.7,14.9,5.7z M14.9,3.9
			C8.9,3.9,4-1,4-7s4.8-10.9,10.9-10.9c6,0,10.9,4.9,10.9,10.9S21,3.9,14.9,3.9z M10-6.1h4v4c0,0.5,0.4,0.9,0.9,0.9s0.9-0.4,0.9-0.9
			v-4h4c0.5,0,0.9-0.4,0.9-0.9s-0.4-0.9-0.9-0.9h-4v-4c0-0.6-0.4-0.9-0.9-0.9S14-12.4,14-11.9v4h-4C9.4-7.9,9.1-7.5,9.1-7
			S9.5-6.1,10-6.1z"/>
	</g>
	<text transform="matrix(1 0 0 1 262.9547 1953.0455)" class="st2 st3">Design Variations</text>
	<text transform="matrix(1 0 0 1 262.9547 1971.0455)" class="st4 st3">Symbols are supported in up to nine weights and three scales.</text>
	<text transform="matrix(1 0 0 1 262.9547 1989.0455)" class="st4 st3">For optimal layout with text and other symbols, vertically align</text>
	<text transform="matrix(1 0 0 1 262.9547 2007.0455)" class="st4 st3">symbols with the adjacent text.</text>
	<line class="st5" x1="776" y1="1919" x2="776" y2="1933"/>
	<g transform="matrix(1 0 0 1 776 1933)">
		<path d="M3.3,0.2c0.5,0,0.8-0.2,1-0.7L5.6-4h5.8l1.3,3.5c0.2,0.5,0.4,0.7,0.9,0.7s0.8-0.3,0.8-0.8c0-0.2,0-0.3-0.1-0.5L9.7-13.3
			c-0.2-0.6-0.6-0.9-1.2-0.9s-1,0.3-1.2,0.9L2.6-1.1C2.5-0.9,2.5-0.7,2.5-0.6C2.4-0.1,2.8,0.2,3.3,0.2z M6-5.5l2.4-6.6l0,0l2.4,6.6
			C10.8-5.5,6-5.5,6-5.5z"/>
	</g>
	<line class="st5" x1="792.8" y1="1919" x2="792.8" y2="1933"/>
	<text transform="matrix(1 0 0 1 775.9547 1953.0455)" class="st2 st3">Margins</text>
	<text transform="matrix(1 0 0 1 775.9547 1971.0455)" class="st4 st3">Leading and trailing margins on the left and right side of each symbol</text>
	<text transform="matrix(1 0 0 1 775.9547 1989.0455)" class="st4 st3">can be adjusted by modifying the x-location of the margin guidelines.</text>
	<text transform="matrix(1 0 0 1 775.9547 2007.0455)" class="st4 st3">Modifications are automatically applied proportionally to all</text>
	<text transform="matrix(1 0 0 1 775.9547 2025.0455)" class="st4 st3">scales and weights.</text>
	<g transform="matrix(1 0 0 1 1289 1933)">
		<path d="M2.8,1.9l1.7,1.7c0.9,0.9,1.8,0.8,2.8-0.2L17.5-7.8c0.3,0.1,0.5,0.1,0.8,0L19.4-8l0.7,0.7v0.6c0,0.5,0.1,0.9,0.6,1.4
			l0.8,0.7c0.5,0.5,1.1,0.5,1.6,0L26-7.5C26.5-8,26.4-8.6,26-9l-0.8-0.8c-0.5-0.5-0.8-0.6-1.3-0.6h-0.6L22.7-11l0.2-1.1
			c0.1-0.6,0-1-0.6-1.6l-2.2-2.2c-3.3-3.3-7.8-3.2-10.7-0.4c-0.4,0.4-0.4,1-0.2,1.4s0.7,0.6,1.3,0.4c1.5-0.3,3-0.4,4.4,0.5l-0.6,1.5
			c-0.2,0.5-0.2,0.9-0.1,1.2L3.1-0.9C2,0.1,1.9,1,2.8,1.9z M10.7-15.9c2.4-1.8,5.7-1.5,7.9,0.8l2.4,2.4c0.2,0.2,0.3,0.4,0.2,0.8
			l-0.3,1.5l1.5,1.5l1-0.1c0.3,0,0.3,0,0.5,0.2l0.6,0.6l-2.4,2.4l-0.6-0.6c-0.2-0.2-0.2-0.3-0.2-0.5l0.1-1l-1.5-1.5l-1.5,0.3
			c-0.3,0.1-0.5,0-0.7-0.2l-2-2c-0.3-0.2-0.3-0.4-0.1-0.8l0.9-2.1c-1.6-1.5-3.6-2.1-5.6-1.5C10.6-15.7,10.6-15.8,10.7-15.9z
			 M5.2,2.4L4,1.2C3.5,0.7,3.6,0.4,4,0l10.9-10.1l1.5,1.5l-10,11C6,2.7,5.7,2.8,5.2,2.4z"/>
	</g>
	<text transform="matrix(1 0 0 1 1288.9546 1953.0455)" class="st2 st3">Exporting</text>
	<text transform="matrix(1 0 0 1 1288.9546 1971.0455)" class="st4 st3">Symbols should be outlined when exporting to ensure the</text>
	<text transform="matrix(1 0 0 1 1288.9546 1989.0455)" class="st4 st3">design is preserved when submitting to Xcode.</text>
	<text id="template-version" transform="matrix(1 0 0 1 2958.8042 1933.0455)" class="st4 st3">Template v.2.0</text>
	<text transform="matrix(1 0 0 1 2878.5308 1951.0455)" class="st4 st3">Requires Xcode 12 or greater</text>
	<text transform="matrix(1 0 0 1 2885.8901 1969.0455)" class="st4 st3">Generated from pencil.circle</text>
	<text transform="matrix(1 0 0 1 2921.8784 1987.0455)" class="st4 st3">Typeset at 100 points</text>
	<text transform="matrix(1 0 0 1 262.9547 726.0455)" class="st4 st3">Small</text>
	<text transform="matrix(1 0 0 1 262.9547 1156.0455)" class="st4 st3">Medium</text>
	<text transform="matrix(1 0 0 1 262.9547 1586.0455)" class="st4 st3">Large</text>
</g>
<g id="Guides">
	<g id="H-reference" transform="matrix(1 0 0 1 339 696)">
		<path class="st6" d="M1,0h2.7L13-24.5h32.8L55.1,0h2.6L30.6-70.5h-2.5L1,0z M29.3-67.1L29.3-67.1l15.5,40.4h-31L29.3-67.1z"/>
	</g>
	<line id="Baseline-S" class="st7" x1="263" y1="696" x2="3036" y2="696"/>
	<line id="Capline-S" class="st7" x1="263" y1="625.5" x2="3036" y2="625.5"/>
	<g id="H-reference_1_" transform="matrix(1 0 0 1 339 1126)">
		<path class="st6" d="M1,0h2.7L13-24.5h32.8L55.1,0h2.6L30.6-70.5h-2.5L1,0z M29.3-67.1L29.3-67.1l15.5,40.4h-31L29.3-67.1z"/>
	</g>
	<line id="Baseline-M" class="st7" x1="263" y1="1126" x2="3036" y2="1126"/>
	<line id="Capline-M" class="st7" x1="263" y1="1055.5" x2="3036" y2="1055.5"/>
	<g id="H-reference_2_" transform="matrix(1 0 0 1 339 1556)">
		<path class="st6" d="M1,0h2.7L13-24.5h32.8L55.1,0h2.6L30.6-70.5h-2.5L1,0z M29.3-67.1L29.3-67.1l15.5,40.4h-31L29.3-67.1z"/>
	</g>
	<line id="Baseline-L" class="st7" x1="263" y1="1556" x2="3036" y2="1556"/>
	<line id="Capline-L" class="st7" x1="263" y1="1485.5" x2="3036" y2="1485.5"/>
	<line id="left-margin" class="st5" x1="1391.3" y1="1030.8" x2="1391.3" y2="1150.1"/>
	<line id="right-margin" class="st5" x1="1508.4" y1="1030.8" x2="1508.4" y2="1150.1"/>
</g>
<g id="Symbols">
	<g id="Regular-M" transform="matrix(1 0 0 1 1391.3 1126)">
		<g>
			<g>
				<g>
					<path d="M58.4-65.6h-0.2l-11.6,8V-65l11.7-8.3h8v45h-7.9C58.4-28.3,58.4-65.6,58.4-65.6z"/>
				</g>
			</g>
			<path d="M112.9,0.5c-1.8,0-3.4-1.1-4-2.9C103.6-19.1,90.3-32,73.4-37.1c-2.2-0.7-3.5-3-2.8-5.2s3-3.5,5.2-2.8
				c19.6,5.8,35,20.8,41.1,40.2c0.7,2.2-0.5,4.6-2.7,5.3C113.7,0.4,113.3,0.5,112.9,0.5z"/>
			<path d="M4.2,0.5c-0.4,0-0.9-0.1-1.3-0.2C0.7-0.4-0.5-2.8,0.2-5c6.3-19.4,21.6-34.4,41.1-40.2c2.2-0.6,4.6,0.6,5.2,2.9
				c0.7,2.2-0.6,4.6-2.9,5.2C26.9-32.1,13.6-19.2,8.2-2.4C7.6-0.6,6,0.5,4.2,0.5z"/>
		</g>
	</g>
</g>
</svg>
