<?xml version="1.0" encoding="utf-8"?>
<!-- Generator: Adobe Illustrator 25.2.1, SVG Export Plug-In . SVG Version: 6.00 Build 0)  -->
<svg version="1.1" id="Layer_1" xmlns="http://www.w3.org/2000/svg" xmlns:xlink="http://www.w3.org/1999/xlink" x="0px" y="0px"
	 viewBox="0 0 120 96" style="enable-background:new 0 0 120 96;" xml:space="preserve">
<path d="M98.461,95.069l21.224-30.311c0.455-0.65,0.414-1.526-0.101-2.13c-0.514-0.604-1.372-0.785-2.087-0.438
	c-8.961,4.34-19.599,3.484-27.762-2.232L69.887,46.06l2.999-4.284c0.265-0.379,0.369-0.847,0.289-1.302
	c-0.08-0.455-0.338-0.86-0.717-1.125l-1.428-1l2-2.856l1.428,1c0.789,0.552,1.875,0.36,2.427-0.428
	c0.552-0.788,0.361-1.875-0.428-2.427l-5.711-3.999c-0.789-0.552-1.875-0.361-2.427,0.428c-0.276,0.394-0.366,0.863-0.289,1.302
	s0.322,0.849,0.717,1.125l1.428,1l-2,2.856l-1.428-1c-0.789-0.552-1.875-0.36-2.427,0.428l-3,4.284l-2.856-2l2.999-4.284
	c0.552-0.789,0.36-1.875-0.428-2.427l-1.428-1l2-2.856l1.428,1c0.789,0.552,1.875,0.36,2.427-0.428
	c0.552-0.789,0.36-1.875-0.428-2.427l-2.855-1.999c-0.001-0.001-2.856-2-2.856-2c-0.789-0.552-1.875-0.36-2.427,0.428
	c-0.276,0.394-0.366,0.863-0.289,1.302c0.077,0.439,0.322,0.849,0.717,1.125l1.428,1l-2,2.856l-1.428-1
	c-0.379-0.265-0.847-0.369-1.302-0.289s-0.86,0.338-1.125,0.717l-2.999,4.284l-2.856-2l3-4.284c0.265-0.379,0.369-0.847,0.289-1.302
	c-0.08-0.455-0.338-0.86-0.717-1.125l-1.428-1l2-2.856l1.428,1c0.789,0.552,1.875,0.361,2.427-0.428
	c0.552-0.788,0.361-1.875-0.428-2.427l-2.855-1.999c-0.001-0.001-2.856-2-2.856-2c-0.789-0.552-1.875-0.36-2.427,0.428
	c-0.276,0.394-0.366,0.863-0.289,1.302s0.322,0.849,0.717,1.125l1.428,1l-2,2.856l-1.428-1c-0.789-0.552-1.875-0.36-2.427,0.428
	l-3,4.284L9.533,3.8l0.333-0.476c0.552-0.789,0.36-1.875-0.428-2.427C8.65,0.344,7.563,0.536,7.011,1.324l-6.695,9.562
	c-0.276,0.394-0.366,0.863-0.289,1.302s0.322,0.849,0.717,1.125c0.789,0.552,1.875,0.36,2.427-0.428l0.333-0.476l13.358,9.353
	c-1.716,1.139-3.214,2.595-4.411,4.304c-2.538,3.625-3.513,8.021-2.744,12.378c0.768,4.358,3.188,8.155,6.812,10.693l2.951,2.066
	l-2.999,4.284c-0.276,0.394-0.366,0.863-0.289,1.303c0.077,0.439,0.322,0.849,0.717,1.125l5.711,3.999
	c0.379,0.265,0.847,0.369,1.302,0.289c0.455-0.08,0.86-0.338,1.125-0.717l3-4.284l2.856,2l-2.999,4.284
	c-0.276,0.394-0.366,0.863-0.289,1.303c0.077,0.439,0.322,0.849,0.717,1.125l5.712,3.999c0.379,0.265,0.847,0.369,1.302,0.289
	c0.455-0.08,0.86-0.338,1.125-0.717l2.999-4.284l2.856,2l-2.999,4.284c-0.265,0.379-0.369,0.847-0.289,1.303
	c0.08,0.455,0.338,0.86,0.717,1.125l5.712,3.999c0.789,0.552,1.875,0.36,2.427-0.428l2.999-4.284l2.951,2.066
	c7.482,5.239,17.832,3.414,23.072-4.068c2.538-3.625,3.513-8.021,2.744-12.378c-0.121-0.685-0.287-1.355-0.488-2.01l8.574,6.004
	c7.603,5.324,17.111,6.905,25.882,4.532L98.816,88.485c-0.77-9.055-5.507-17.448-13.11-22.772c-0.789-0.552-1.875-0.36-2.427,0.428
	c-0.552,0.789-0.361,1.875,0.428,2.427c8.164,5.716,12.606,15.42,11.592,25.324c-0.081,0.79,0.382,1.534,1.126,1.811
	C97.168,95.98,98.005,95.719,98.461,95.069z M66.175,39.204l1.427,0.999c0.001,0.001,1.429,1,1.429,1l-2,2.856l-2.856-2
	L66.175,39.204z M54.752,31.206l2.856,2l-2,2.856l-2.856-2L54.752,31.206z M43.329,23.207l2.856,2l-2,2.856l-2.856-2L43.329,23.207z
	 M18.519,46.283c-2.862-2.004-4.772-5.003-5.379-8.443c-0.607-3.441,0.163-6.912,2.167-9.774c1.216-1.737,2.825-3.143,4.688-4.109
	l3.463,2.425c-2.13,0.59-3.971,1.885-5.252,3.715c-1.509,2.155-2,4.722-1.576,7.128c0.424,2.406,1.764,4.651,3.919,6.16l2.951,2.066
	l-2.03,2.899L18.519,46.283z M29.494,30.608l2.951,2.066l-6.946,9.92l-2.951-2.066c-2.735-1.915-3.402-5.698-1.487-8.433
	C22.976,29.36,26.759,28.693,29.494,30.608z M23.182,58.06l-2.856-2L35.3,34.673l8.568,5.999l-6.946,9.92l-2.856-2l3.947-5.637
	c0.552-0.789,0.36-1.875-0.428-2.427c-0.789-0.552-1.875-0.36-2.427,0.428l-8.975,12.817C26.181,53.777,23.182,58.06,23.182,58.06z
	 M30.037,54.347l2.03-2.899l2.856,2l-2.03,2.899L30.037,54.347z M31.749,64.058l2.999-4.282
	c0.002-0.003,11.976-17.104,11.976-17.104l8.568,5.999l-6.946,9.92l-2.856-2l3.947-5.637c0.552-0.789,0.36-1.876-0.428-2.427
	c-0.789-0.552-1.875-0.36-2.427,0.428l-4.945,7.062c-0.002,0.004-4.029,5.754-4.029,5.754c-0.003,0.005-3.001,4.286-3.001,4.286
	L31.749,64.058z M41.459,62.346l2.03-2.899l2.856,2l-2.03,2.899L41.459,62.346z M46.028,74.056l-2.856-2l2.999-4.283
	c0-0.001,11.975-17.103,11.975-17.103l8.662,6.065c2.735,1.915,3.402,5.698,1.487,8.434c-0.926,1.322-2.314,2.205-3.909,2.486
	c-1.595,0.281-3.202-0.074-4.524-1l-2.951-2.066l3.947-5.636c0.552-0.789,0.361-1.875-0.428-2.427
	c-0.789-0.552-1.875-0.36-2.427,0.428L46.028,74.056z M76.217,59.425c0.607,3.441-0.163,6.912-2.167,9.774
	c-4.137,5.908-12.309,7.349-18.217,3.212l-2.951-2.066l2.03-2.899l2.951,2.066c2.085,1.46,4.616,2.02,7.129,1.577
	c2.512-0.443,4.7-1.835,6.16-3.92c3.017-4.31,1.966-10.271-2.343-13.288L5.503,9.554l2.03-2.899l63.302,44.324
	C73.702,52.989,75.61,55.986,76.217,59.425z"/>
</svg>
