<?xml version="1.0" encoding="utf-8"?>
<!-- Generator: Adobe Illustrator 25.2.1, SVG Export Plug-In . SVG Version: 6.00 Build 0)  -->
<svg version="1.1" id="Thinner" xmlns="http://www.w3.org/2000/svg" xmlns:xlink="http://www.w3.org/1999/xlink" x="0px" y="0px"
	 viewBox="0 0 200 200" style="enable-background:new 0 0 200 200;" xml:space="preserve">
<g>
	<path d="M94.422,11.082l18.375-3.168v81.574h0.475c2.639-5.385,6.941-10.189,12.908-14.414c5.965-4.222,13.279-6.335,21.939-6.335
		c8.023,0,15.072,1.9,21.145,5.702c6.072,3.801,10.824,9.004,14.256,15.602c3.43,6.601,5.148,14.124,5.148,22.571v0.316
		c0,19.221-7.129,35.64-21.385,49.262c-14.254,13.622-34.268,22.863-60.031,27.719l-12.83,2.376V11.082z M142.1,159.182
		c8.236-5.489,14.572-11.932,19.008-19.324c4.434-7.391,6.652-15.416,6.652-24.076v-0.316c0-8.658-2.455-15.575-7.365-20.75
		c-4.91-5.172-11.01-7.761-18.295-7.761c-8.027,0-14.916,3.037-20.672,9.108c-5.756,6.074-8.631,14.865-8.631,26.373v49.261
		C124.094,168.844,133.863,164.674,142.1,159.182z"/>
</g>
<g>
	<path d="M29.422,11.082l17.597-3.168v81.574h0.403c2.24-5.385,5.892-10.189,10.957-14.414c5.063-4.222,11.272-6.335,18.623-6.335
		c6.811,0,12.794,1.9,17.948,5.702c5.154,3.801,9.188,9.004,12.101,15.602c2.911,6.601,4.37,14.124,4.37,22.571v0.316
		c0,19.221-6.051,35.64-18.152,49.262c-12.099,13.622-31.088,22.863-52.957,27.719l-10.891,2.376V11.082z M71.893,159.182
		c6.991-5.489,12.37-11.932,16.135-19.324c3.763-7.391,5.647-15.416,5.647-24.076v-0.316c0-8.658-2.084-15.575-6.252-20.75
		c-4.168-5.172-9.346-7.761-15.529-7.761c-6.814,0-12.661,3.037-17.547,9.108c-4.886,6.074-7.326,14.865-7.326,26.373v49.261
		C56.609,168.844,64.901,164.674,71.893,159.182z"/>
</g>
</svg>
