<?xml version="1.0" encoding="utf-8"?>
<!-- Generator: Adobe Illustrator 25.2.1, SVG Export Plug-In . SVG Version: 6.00 Build 0)  -->
<svg version="1.1" id="Layer_1" xmlns="http://www.w3.org/2000/svg" xmlns:xlink="http://www.w3.org/1999/xlink" x="0px" y="0px"
	 viewBox="0 0 3300 2200" style="enable-background:new 0 0 3300 2200;" xml:space="preserve">
<style type="text/css">
	.st0{fill:#FFFFFF;}
	.st1{fill:none;stroke:#000000;stroke-width:0.5;}
	.st2{font-family:'Arial-BoldMT';}
	.st3{font-size:12px;}
	.st4{font-family:'ArialMT';}
	.st5{fill:none;stroke:#00AEEF;stroke-width:0.5;}
	.st6{fill:#27AAE1;}
	.st7{fill:none;stroke:#27AAE1;stroke-width:0.5;}
</style>
<g id="Notes">
	<rect id="artboard" x="1.3" y="-0.9" class="st0" width="3300" height="2200"/>
	<line class="st1" x1="264.3" y1="291.1" x2="3037.3" y2="291.1"/>
	<text transform="matrix(1 0 0 1 264.2547 321.1455)" class="st2 st3">Weight/Scale Variations</text>
	<text transform="matrix(1 0 0 1 537.2909 321.1455)" class="st4 st3">Ultralight</text>
	<text transform="matrix(1 0 0 1 846.0048 321.1455)" class="st4 st3">Thin</text>
	<text transform="matrix(1 0 0 1 1141.3739 321.1455)" class="st4 st3">Light</text>
	<text transform="matrix(1 0 0 1 1430.083 321.1455)" class="st4 st3">Regular</text>
	<text transform="matrix(1 0 0 1 1726.4749 321.1455)" class="st4 st3">Medium</text>
	<text transform="matrix(1 0 0 1 2019.511 321.1455)" class="st4 st3">Semibold</text>
	<text transform="matrix(1 0 0 1 2329.2258 321.1455)" class="st4 st3">Bold</text>
	<text transform="matrix(1 0 0 1 2620.9377 321.1455)" class="st4 st3">Heavy</text>
	<text transform="matrix(1 0 0 1 2919.9827 321.1455)" class="st4 st3">Black</text>
	<line class="st1" x1="264.3" y1="1902.1" x2="3037.3" y2="1902.1"/>
	<g transform="matrix(1 0 0 1 263 1933)">
		<path d="M10.5,0c4.3,0,7.9-3.6,7.9-7.9s-3.6-7.9-7.9-7.9s-7.9,3.6-7.9,7.9S6.2,0,10.5,0z M10.5-1.5C7-1.5,4.1-4.3,4.1-7.9
			s2.8-6.4,6.4-6.4s6.4,2.8,6.4,6.4C16.9-4.4,14.1-1.5,10.5-1.5z M7.7-7.2h2.1v2.1c0,0.4,0.3,0.7,0.7,0.7s0.7-0.3,0.7-0.7v-2.1h2.1
			c0.4,0,0.7-0.3,0.7-0.7s-0.3-0.7-0.7-0.7h-2.1v-2.1c0-0.4-0.3-0.8-0.7-0.8s-0.7,0.3-0.7,0.8v2.1H7.7c-0.4,0-0.8,0.3-0.8,0.7
			S7.2-7.2,7.7-7.2z"/>
	</g>
	<g transform="matrix(1 0 0 1 281.506 1933)">
		<path d="M13,2.1c5.4,0,10-4.5,10-10c0-5.4-4.5-10-10-10c-5.4,0-10,4.5-10,10C3-2.5,7.5,2.1,13,2.1z M13,0.4
			c-4.6,0-8.3-3.7-8.3-8.3s3.7-8.3,8.3-8.3s8.3,3.7,8.3,8.3S17.6,0.4,13,0.4z M9.2-7.1h2.9v2.9c0,0.5,0.3,0.8,0.8,0.8
			s0.8-0.3,0.8-0.8v-2.9h2.9c0.5,0,0.8-0.3,0.8-0.8s-0.3-0.8-0.8-0.8h-2.9v-2.9c0-0.5-0.3-0.8-0.8-0.8s-0.8,0.3-0.8,0.8v2.9H9.2
			c-0.5,0-0.8,0.3-0.8,0.8S8.7-7.1,9.2-7.1z"/>
	</g>
	<g transform="matrix(1 0 0 1 304.924 1933)">
		<path d="M16.2,4.8c7,0,12.7-5.8,12.7-12.7c0-7-5.8-12.7-12.7-12.7c-7,0-12.7,5.8-12.7,12.7S9.3,4.8,16.2,4.8z M16.2,3
			C10.2,3,5.3-1.9,5.3-7.9s4.8-10.9,10.9-10.9c6,0,10.9,4.9,10.9,10.9S22.3,3,16.2,3z M11.3-7h4v4c0,0.5,0.4,0.9,0.9,0.9
			c0.5,0,0.9-0.4,0.9-0.9v-4h4C21.6-7,22-7.4,22-7.9s-0.4-0.9-0.9-0.9h-4v-4c0-0.6-0.4-0.9-0.9-0.9s-0.9,0.4-0.9,0.9v4h-4
			c-0.6,0-0.9,0.4-0.9,0.9C10.4-7.4,10.8-7,11.3-7z"/>
	</g>
	<text transform="matrix(1 0 0 1 264.2547 1952.1455)" class="st2 st3">Design Variations</text>
	<text transform="matrix(1 0 0 1 264.2547 1970.1455)" class="st4 st3">Symbols are supported in up to nine weights and three scales.</text>
	<text transform="matrix(1 0 0 1 264.2547 1988.1455)" class="st4 st3">For optimal layout with text and other symbols, vertically align</text>
	<text transform="matrix(1 0 0 1 264.2547 2006.1455)" class="st4 st3">symbols with the adjacent text.</text>
	<line class="st5" x1="777.3" y1="1918.1" x2="777.3" y2="1932.1"/>
	<g transform="matrix(1 0 0 1 776 1933)">
		<path d="M4.6-0.7c0.5,0,0.8-0.2,1-0.7l1.3-3.5h5.8L14-1.4c0.2,0.5,0.4,0.7,0.9,0.7s0.8-0.3,0.8-0.8c0-0.2,0-0.3-0.1-0.5L11-14.2
			c-0.2-0.6-0.6-0.9-1.2-0.9c-0.6,0-1,0.3-1.2,0.9L3.9-2C3.8-1.8,3.8-1.6,3.8-1.5C3.7-1,4.1-0.7,4.6-0.7z M7.3-6.4L9.7-13l0,0
			l2.4,6.6H7.3z"/>
	</g>
	<line class="st5" x1="794.1" y1="1918.1" x2="794.1" y2="1932.1"/>
	<text transform="matrix(1 0 0 1 777.2547 1952.1455)" class="st2 st3">Margins</text>
	<text transform="matrix(1 0 0 1 777.2547 1970.1455)" class="st4 st3">Leading and trailing margins on the left and right side of each symbol</text>
	<text transform="matrix(1 0 0 1 777.2547 1988.1455)" class="st4 st3">can be adjusted by modifying the x-location of the margin guidelines.</text>
	<text transform="matrix(1 0 0 1 777.2547 2006.1455)" class="st4 st3">Modifications are automatically applied proportionally to all</text>
	<text transform="matrix(1 0 0 1 777.2547 2024.1455)" class="st4 st3">scales and weights.</text>
	<g transform="matrix(1 0 0 1 1289 1933)">
		<path d="M4.1,1l1.7,1.7c0.9,0.9,1.8,0.8,2.8-0.2L18.8-8.7c0.3,0.1,0.5,0.1,0.8,0l1.1-0.2l0.7,0.7v0.6c0,0.5,0.1,0.9,0.6,1.4
			l0.8,0.7c0.5,0.5,1.1,0.5,1.6,0l2.9-2.9c0.5-0.5,0.4-1.1,0-1.5l-0.8-0.8c-0.5-0.5-0.8-0.6-1.3-0.6h-0.6L24-11.9l0.2-1.1
			c0.1-0.6,0-1-0.6-1.6l-2.2-2.2c-3.3-3.3-7.8-3.2-10.7-0.4c-0.4,0.4-0.4,1-0.2,1.4s0.7,0.6,1.3,0.4c1.5-0.3,3-0.4,4.4,0.5l-0.6,1.5
			c-0.2,0.5-0.2,0.9-0.1,1.2L4.4-1.8C3.3-0.8,3.2,0.1,4.1,1z M12-16.8c2.4-1.8,5.7-1.5,7.9,0.8l2.4,2.4c0.2,0.2,0.3,0.4,0.2,0.8
			l-0.3,1.5l1.5,1.5l1-0.1c0.3,0,0.3,0,0.5,0.2l0.6,0.6l-2.4,2.4l-0.6-0.6c-0.2-0.2-0.2-0.3-0.2-0.5l0.1-1l-1.5-1.5L19.7-10
			c-0.3,0.1-0.5,0-0.7-0.2l-2-2c-0.3-0.2-0.3-0.4-0.1-0.8l0.9-2.1c-1.6-1.5-3.6-2.1-5.6-1.5C11.9-16.6,11.9-16.7,12-16.8z M6.5,1.5
			L5.3,0.3c-0.5-0.5-0.4-0.8,0-1.2L16.2-11l1.5,1.5l-10,11C7.3,1.8,7,1.9,6.5,1.5z"/>
	</g>
	<text transform="matrix(1 0 0 1 1290.2546 1952.1455)" class="st2 st3">Exporting</text>
	<text transform="matrix(1 0 0 1 1290.2546 1970.1455)" class="st4 st3">Symbols should be outlined when exporting to ensure the</text>
	<text transform="matrix(1 0 0 1 1290.2546 1988.1455)" class="st4 st3">design is preserved when submitting to Xcode.</text>
	<text id="template-version" transform="matrix(1 0 0 1 2960.1042 1932.1455)" class="st4 st3">Template v.2.0</text>
	<text transform="matrix(1 0 0 1 2879.8308 1950.1455)" class="st4 st3">Requires Xcode 12 or greater</text>
	<text transform="matrix(1 0 0 1 2887.1902 1968.1455)" class="st4 st3">Generated from pencil.circle</text>
	<text transform="matrix(1 0 0 1 2923.1785 1986.1455)" class="st4 st3">Typeset at 100 points</text>
	<text transform="matrix(1 0 0 1 264.2547 725.1455)" class="st4 st3">Small</text>
	<text transform="matrix(1 0 0 1 264.2547 1155.1455)" class="st4 st3">Medium</text>
	<text transform="matrix(1 0 0 1 264.2547 1585.1455)" class="st4 st3">Large</text>
</g>
<g id="Guides">
	<g id="H-reference" transform="matrix(1 0 0 1 339 696)">
		<path class="st6" d="M1,0h2.7L13-24.5h32.8L55.1,0h2.6L30.6-70.5h-2.5L1,0z M29.3-67.1L29.3-67.1l15.5,40.4h-31L29.3-67.1z"/>
	</g>
	<line id="Baseline-S" class="st7" x1="263" y1="696" x2="3036" y2="696"/>
	<line id="Capline-S" class="st7" x1="263" y1="625.5" x2="3036" y2="625.5"/>
	<g id="H-reference_1_" transform="matrix(1 0 0 1 339 1126)">
		<path class="st6" d="M1,0h2.7L13-24.5h32.8L55.1,0h2.6L30.6-70.5h-2.5L1,0z M29.3-67.1L29.3-67.1l15.5,40.4h-31L29.3-67.1z"/>
	</g>
	<line id="Baseline-M" class="st7" x1="263" y1="1126" x2="3036" y2="1126"/>
	<line id="Capline-M" class="st7" x1="263" y1="1055.5" x2="3036" y2="1055.5"/>
	<g id="H-reference_2_" transform="matrix(1 0 0 1 339 1556)">
		<path class="st6" d="M1,0h2.7L13-24.5h32.8L55.1,0h2.6L30.6-70.5h-2.5L1,0z M29.3-67.1L29.3-67.1l15.5,40.4h-31L29.3-67.1z"/>
	</g>
	<line id="Baseline-L" class="st7" x1="263" y1="1556" x2="3036" y2="1556"/>
	<line id="Capline-L" class="st7" x1="263" y1="1485.5" x2="3036" y2="1485.5"/>
	<line id="left-margin" class="st5" x1="1391.3" y1="1030.8" x2="1391.3" y2="1150.1"/>
	<line id="right-margin" class="st5" x1="1508.4" y1="1030.8" x2="1508.4" y2="1150.1"/>
</g>
<g id="Symbols">
	<g id="Regular-M" transform="matrix(1 0 0 1 1391.3 1126)">
		<g>
			<path d="M4.2,0.5c-0.4,0-0.9-0.1-1.3-0.2C0.7-0.4-0.5-2.8,0.2-5C4.9-19.7,14.9-32,28.4-39.7c2-1.1,4.6-0.4,5.7,1.6
				c1.1,2,0.4,4.6-1.6,5.7C20.9-25.8,12.3-15.1,8.2-2.4C7.6-0.6,6,0.5,4.2,0.5z"/>
			<path d="M112.9,0.5c-1.8,0-3.4-1.1-4-2.9c-4-12.7-12.7-23.3-24.5-29.9c-2-1.1-2.7-3.7-1.6-5.7c1.1-2,3.7-2.7,5.7-1.6
				c13.6,7.7,23.7,20,28.3,34.7c0.7,2.2-0.5,4.6-2.7,5.3C113.8,0.4,113.3,0.5,112.9,0.5z"/>
			<g>
				<g>
					<path d="M48.5-30.3c-3.2-1.9-5.6-4.5-7.3-8c-1.7-3.5-2.5-7.6-2.5-12.2l0,0c0-4.7,0.8-8.9,2.5-12.2c1.7-3.5,4.1-6.1,7.3-7.9
						c3.2-1.9,6.9-2.8,11.1-2.8c3.4,0,6.4,0.6,9.2,2c2.7,1.3,5,3.2,6.6,5.5c1.7,2.3,2.7,5,3.2,8v0.3h-7.8l-0.1-0.6
						c-0.4-1.7-1.2-3.2-2.1-4.4c-0.9-1.3-2.2-2.2-3.7-2.8c-1.5-0.6-3.3-1.1-5.2-1.1c-2.6,0-4.9,0.6-6.8,2c-1.9,1.4-3.4,3.2-4.4,5.6
						s-1.6,5.3-1.6,8.5l0,0c0,3.3,0.5,6.1,1.6,8.5s2.5,4.3,4.4,5.6c1.9,1.4,4.2,2,6.8,2c1.9,0,3.6-0.3,5.1-1.1
						c1.5-0.6,2.7-1.7,3.8-3c1.1-1.3,1.8-2.8,2.2-4.6l0.1-0.3h7.8l-0.1,0.3c-0.4,3.1-1.4,5.7-3.2,8c-1.7,2.3-3.9,4.1-6.6,5.5
						s-5.8,2-9.2,2C55.4-27.6,51.7-28.5,48.5-30.3z"/>
				</g>
			</g>
		</g>
	</g>
</g>
</svg>
